# xmcd
#
# Track frame offsets: 
#        150
#        18037
#        47813
#        64244
#        93342
#        119803
#        146597
#        177805
#        201082
#        227914
#        252277
#        272932
#        290292
#
# Disc length: 4342 seconds
#
# Revision: 0
# Processed by: cddbd v1.5.2PL0 Copyright (c) Steve Scherf et al.
# Submitted via: ExactAudioCopy v0.90b4
#
DISCID=c010f40d
DTITLE=James King and The Southsiders - Too Faced
DYEAR=2011
DGENRE=West Coast Blues
TTITLE0=90 MPH
TTITLE1=Smack Dab In The Middle
TTITLE2=Lost Weekend
TTITLE3=It's Alright
TTITLE4=Sick n Tired
TTITLE5=Cross Eyed Cat
TTITLE6=I Satnd Accused
TTITLE7=Reconsider Baby
TTITLE8=Zydeco Bugaloo
TTITLE9=It's All Good
TTITLE10=Letter From St. Louis
TTITLE11=Midnight Shuffle
TTITLE12=Country Girl
EXTD=
EXTT0=
EXTT1=
EXTT2=
EXTT3=
EXTT4=
EXTT5=
EXTT6=
EXTT7=
EXTT8=
EXTT9=
EXTT10=
EXTT11=
EXTT12=
PLAYORDER=
